<svg xmlns="http://www.w3.org/2000/svg" enable-background="new 0 0 130 130" viewBox="0 0 130 130"><linearGradient id="a" x1="65" x2="65" y1="119.535" y2="18.385" gradientUnits="userSpaceOnUse"><stop offset="0" stop-color="#ee5b5a"/><stop offset=".993" stop-color="#e33f21"/></linearGradient><path fill="url(#a)" d="M1,66.9c1,35.3,30.5,63.1,65.8,62.1c35.3-1,63.1-30.5,62.1-65.9C127.9,27.8,98.5,0,63.1,1
							C27.8,2.1,0,31.5,1,66.9z"/><linearGradient id="b" x1="65" x2="65" y1="101.983" y2="-58.4" gradientUnits="userSpaceOnUse"><stop offset="0" stop-color="#ee5b5a"/><stop offset=".993" stop-color="#e33f21"/></linearGradient><path fill="url(#b)" d="M1,66.9c1,35.3,30.5,63.1,65.8,62.1c35.3-1,63.1-30.5,62.1-65.9C127.9,27.8,98.5,0,63.1,1
							C27.8,2.1,0,31.5,1,66.9z"/><linearGradient id="c" x1="49.505" x2="49.505" y1="114.097" y2="-117.932" gradientUnits="userSpaceOnUse"><stop offset="0" stop-color="#ee5b5a"/><stop offset=".993" stop-color="#e33f21"/></linearGradient><path fill="url(#c)" d="M25.3,14.8c16-4.7,32.2-9.1,48.4-13.2c-0.7-0.1-1.3-0.2-2-0.2C60.1,3,48.5,5,37,7.4
				C32.9,9.5,28.9,11.9,25.3,14.8z"/><linearGradient id="d" x1="355.325" x2="355.325" y1="-735.099" y2="-967.128" gradientTransform="matrix(.9304 .4197 -.4626 1.7755 -667.39 1329.55)" gradientUnits="userSpaceOnUse"><stop offset="0" stop-color="#ee5b5a"/><stop offset=".993" stop-color="#e33f21"/></linearGradient><path fill="url(#d)" d="M55.3,38c-11.7,2.4-22.5,1.3-32.1-5.5c4.7,2.3,10.2,1.9,15.5-1.2c1.4-0.8,3-1.9,4.3-1.4
					c1.2,0.4,2.1,2,3,3.3C48.5,36.6,51.8,38.3,55.3,38z"/><linearGradient id="e" x1="65.011" x2="65.011" y1="124.115" y2="-23.773" gradientUnits="userSpaceOnUse"><stop offset="0" stop-color="#ee5b5a"/><stop offset=".993" stop-color="#e33f21"/></linearGradient><path fill="url(#e)" d="M110.9,109.6c11.6-12,18.6-28.4,18.1-46.4c-0.3-10.5-3.1-20.2-7.8-28.8
				c-12.8-2.5-31.8,8.6-39.1,19.3c-10.3,15-30.6,4.5-44.2-2.8C14.8,38.6,4.9,62.6,1,65.8c0,0.4,0,0.7,0,1.1
				c0.5,16.6,7.3,31.6,18.1,42.7H110.9z"/><linearGradient id="f" x1="67.919" x2="67.919" y1="164.491" y2="-5.335" gradientUnits="userSpaceOnUse"><stop offset="0" stop-color="#ee5b5a"/><stop offset=".993" stop-color="#e33f21"/></linearGradient><path fill="url(#f)" d="M110.9,109.6c8.9-9.2,15.1-21.1,17.3-34.3c-8.5-7.5-17.9-10-29,2.9c-6.3,7.4-31-35.8-48.7-29.5
				c-12.9,4.6-30,26.8-42.9,44.8c3,6,6.9,11.4,11.4,16.1H110.9z"/><linearGradient id="g" x1="64.994" x2="64.994" y1="144.501" y2="89.092" gradientUnits="userSpaceOnUse"><stop offset="0" stop-color="#ee5b5a"/><stop offset=".993" stop-color="#e33f21"/></linearGradient><path fill="url(#g)" d="M18.1,108.6c12.1,13,29.6,21,48.7,20.4c17.8-0.5,33.7-8.3,45-20.4H18.1z"/><linearGradient id="h" x1="60.821" x2="60.821" y1="121.122" y2="85.671" gradientUnits="userSpaceOnUse"><stop offset="0" stop-color="#ee5b5a"/><stop offset=".993" stop-color="#e33f21"/></linearGradient><path fill="url(#h)" d="M69,99c-1.7,4.8-22.7,10-15.3-8.2C61.1,72.4,71.7,91.4,69,99z"/><g><linearGradient id="i" x1="61.195" x2="61.195" y1="116.273" y2="107.703" gradientUnits="userSpaceOnUse"><stop offset="0" stop-color="#ee5b5a"/><stop offset=".993" stop-color="#e33f21"/></linearGradient><polygon fill="url(#i)" points="60.9 101.8 61.3 108.6 59.6 108.6 60.1 99.1 55.7 94.4 60.1 98.4 60.4 91 60.9 100.8 66.7 95.5"/></g><g><linearGradient id="j" x1="80.74" x2="80.74" y1="117.497" y2="92.288" gradientUnits="userSpaceOnUse"><stop offset="0" stop-color="#ee5b5a"/><stop offset=".993" stop-color="#e33f21"/></linearGradient><path fill="url(#j)" d="M86.6,101.8c-1.2,3.4-16.1,7.1-10.9-5.9C81,82.8,88.5,96.3,86.6,101.8z"/><g><linearGradient id="k" x1="81.006" x2="81.006" y1="114.049" y2="107.954" gradientUnits="userSpaceOnUse"><stop offset="0" stop-color="#ee5b5a"/><stop offset=".993" stop-color="#e33f21"/></linearGradient><polygon fill="url(#k)" points="80.8 103.8 81.1 108.6 79.9 108.6 80.2 101.9 77.1 98.5 80.2 101.3 80.5 96.1 80.8 103 84.9 99.3"/></g></g><g><linearGradient id="l" x1="102.25" x2="102.25" y1="124.214" y2="80.03" gradientUnits="userSpaceOnUse"><stop offset="0" stop-color="#ee5b5a"/><stop offset=".993" stop-color="#e33f21"/></linearGradient><path fill="url(#l)" d="M112.5,96.7c-2.1,6-28.2,12.5-19.1-10.3C102.6,63.5,115.8,87.1,112.5,96.7z"/><g><linearGradient id="m" x1="102.717" x2="102.717" y1="118.17" y2="107.488" gradientUnits="userSpaceOnUse"><stop offset="0" stop-color="#ee5b5a"/><stop offset=".993" stop-color="#e33f21"/></linearGradient><polygon fill="url(#m)" points="102.4 100.1 102.8 108.6 100.8 108.6 101.3 96.8 95.9 90.9 101.4 95.8 101.8 86.7 102.3 98.8 109.5 92.3"/></g></g><g><linearGradient id="n" x1="77.993" x2="77.993" y1="114.08" y2="-117.91" gradientUnits="userSpaceOnUse"><stop offset="0" stop-color="#ee5b5a"/><stop offset=".993" stop-color="#e33f21"/></linearGradient><path fill="url(#n)" d="M94.1,9.4c-10.6,3.9-21.3,5.8-32.2,4.5C67,14,72.2,12.5,76.5,9.8c1.2-0.8,2.4-1.6,3.8-1.7
					C83.1,7.9,86.7,11.6,94.1,9.4z"/></g><linearGradient id="o" x1="79.92" x2="79.92" y1="114.097" y2="-117.932" gradientUnits="userSpaceOnUse"><stop offset="0" stop-color="#ee5b5a"/><stop offset=".993" stop-color="#e33f21"/></linearGradient><path fill="url(#o)" d="M107.7,17.4c-1.9-1.7-3.9-3.3-5.9-4.8c-11.5,6.6-36.3,12.5-49.6,14.8
				C70.9,26.1,89.5,22.5,107.7,17.4z"/><g><path fill="#383547" d="M95.6,76.8c0.2,0.2,0.2,0.6-0.1,0.9L82.5,90.1c-0.2,0.2-0.6,0.2-0.8,0c-0.2-0.2-0.2-0.6,0.1-0.9
									l13.1-12.4C95,76.5,95.4,76.6,95.6,76.8z" enable-background="new"/><linearGradient id="p" x1="311.855" x2="312.705" y1="1792.94" y2="1791.711" gradientTransform="rotate(16.255 6145.98 113.296)" gradientUnits="userSpaceOnUse"><stop offset="0" stop-color="#383547"/><stop offset=".993" stop-color="#272535"/></linearGradient><path fill="url(#p)" d="M95.4,76.7c-0.2-0.1-0.5-0.1-0.7,0.1L81.7,89.2c-0.2,0.2-0.3,0.6-0.1,0.9
							c0,0.1,0.1,0.1,0.2,0.1L79.5,89c-0.1,0-0.1-0.1-0.2-0.1c-0.2-0.2-0.2-0.6,0.1-0.9l13.1-12.4c0.2-0.2,0.5-0.2,0.7-0.1
							L95.4,76.7z"/><g><linearGradient id="q" x1="82.543" x2="90.925" y1="85.5" y2="85.5" gradientUnits="userSpaceOnUse"><stop offset="0" stop-color="#fdd3c3"/><stop offset=".996" stop-color="#fbb09b"/></linearGradient><path fill="url(#q)" d="M84.4,89l-1.8-1.7c0,0,3.1-5.5,4.2-5c1,0.4-0.5,3.3-0.5,3.3c1.5-0.6,3.1-1.9,4.7-3.5
						C90.9,82,91,87.9,84.4,89z"/></g><g><linearGradient id="r" x1="794.278" x2="794.278" y1="-373.443" y2="-378.76" gradientTransform="matrix(1.1583 -.09575 .08239 .9966 -846.495 540.035)" gradientUnits="userSpaceOnUse"><stop offset="0" stop-color="#6f2d13"/><stop offset=".993" stop-color="#4a1a08"/></linearGradient><path fill="url(#r)" d="M48.5,23.8H29.4v46.9c8,24.2,21.5,9.7,19.8-41.7C49,27.2,48.8,25.5,48.5,23.8z"/><linearGradient id="s" x1="199.987" x2="248.053" y1="-1665.471" y2="-1665.471" gradientTransform="rotate(-17.235 5741.817 -176.084)" gradientUnits="userSpaceOnUse"><stop offset="0" stop-color="#fdd3c3"/><stop offset=".996" stop-color="#fbb09b"/></linearGradient><path fill="url(#s)" d="M49.8,20.7c-0.2-2.8-0.6-5.7-1.8-8.4c-1.2-2.6-3.3-4.9-6-5.7c-2.3-0.6-4.9-0.1-6.9,1.1
								c-2.1,1.2-3.8,3-5.2,4.9c-2,2.7-3.5,5.7-4.8,8.8V52L39.3,61c-1.6-6.4-3-12.6-3.3-17.6c-0.2-2.3,1.4-4.3,3.7-4.7
								c1.1-0.2,2.1-0.4,2.9-0.5c2.6-0.4,4.6-2.5,5.8-4.8C50.3,29.6,50.2,25,49.8,20.7z"/><linearGradient id="t" x1="31.093" x2="31.093" y1="149.77" y2="144.961" gradientUnits="userSpaceOnUse"><stop offset="0" stop-color="#ffb127"/><stop offset=".996" stop-color="#ff8424"/></linearGradient><path fill="url(#t)" d="M47.3,88.4c-1-8.8-2.2-17.7-5.5-26C37.7,52,30.1,43,20.6,37.1c-8,13.9-10.2,31.2-9.5,47.2
							c0.2,5.6,0.7,11.2,1,16.7c9,13.2,22.9,22.9,39.1,26.5C50.1,114.4,48.9,101.4,47.3,88.4z"/><g><linearGradient id="u" x1="79.894" x2="12.144" y1="126.413" y2="45.412" gradientUnits="userSpaceOnUse"><stop offset="0" stop-color="#ffb127"/><stop offset=".996" stop-color="#ff8424"/></linearGradient><path fill="url(#u)" d="M82.9,85.6c-1.2,1.1-2.3,2.4-3.4,3.4c-4.4,3.9-9.1,7.6-14.1,10.7c-4.3,2.7-9.1,5.3-14.1,6
								c-5.6,0.8-7.4-1.5-8.9-7c-1.3-4.8-1.3-9.9-1.2-14.9c0.3-8.4,3.2-18.1-5.5-23.3c-6.5-3.9-15.2-1.3-18.5,5.5
								c-1.7,3.4-1.3,6.8-0.9,10.4c0.6,5.1,1.5,10.1,2.7,15c7.3,29.1,26.6,38.9,49.2,18.9c7.1-6.3,13-13.9,18.3-21.7
								C87.6,87.4,83.9,84.4,82.9,85.6z"/></g><g><linearGradient id="v" x1="34.652" x2="34.652" y1="-9.739" y2="98.804" gradientUnits="userSpaceOnUse"><stop offset="0" stop-color="#6f2d13"/><stop offset=".993" stop-color="#4a1a08"/></linearGradient><path fill="url(#v)" d="M51.6,18.6c-1.9,1.2-4.4,1.8-6.5,2.4c-0.9,0.2-1.7,0.4-2.6,0.4c-2.3,0.2-3.4,1.2-4.6,3.2
							c-4.2,6.7-1.1,15.1,0.8,22c2.3,8.2,5.5,16.3,7.4,24.6c1.5,6.8,0,13.7-6.9,16.7c-6.4,2.7-13.4,0-17.8-5
							c-4.9-5.5-6.3-13.2-6.1-20.4c0.3-8.7,2.3-17.4,3.7-25.9c0.7-3.9,1.2-7.7,1.5-11.7c0.3-3.9,0.9-7.8,2.3-11.5
							c2.7-6.9,9.7-13.1,17.5-10.3C44.5,4.6,59.8,13.7,51.6,18.6z"/></g></g></g><g><linearGradient id="w" x1="106.895" x2="106.895" y1="-4.165" y2="49.541" gradientUnits="userSpaceOnUse"><stop offset="0" stop-color="#293377"/><stop offset=".989" stop-color="#14163f"/></linearGradient><path fill="url(#w)" d="M118.1,16.7c0,6.2-6.6,22.9-11.2,22.9c-4.8,0-11.2-16.7-11.2-22.9s5-11.2,11.2-11.2
				C113.1,5.5,118.1,10.5,118.1,16.7z"/><g><linearGradient id="x" x1="106.895" x2="106.895" y1="32.227" y2="20.213" gradientUnits="userSpaceOnUse"><stop offset="0" stop-color="#293377"/><stop offset=".989" stop-color="#14163f"/></linearGradient><circle cx="106.9" cy="16.7" r="5.2" fill="url(#x)"/></g></g></svg>